<svg width="400" height="400" viewBox="0 0 400 400" fill="none" xmlns="http://www.w3.org/2000/svg">
<path d="M282.834 79.2837C281.964 75.7809 279.979 72.6555 277.179 70.3784C274.379 68.1013 270.914 66.7958 267.308 66.6585C263.701 66.5213 260.147 67.5597 257.182 69.6173C254.217 71.675 252 74.6404 250.867 78.0671L197.767 237.3L148.567 126.567C147.227 123.581 145.04 121.054 142.276 119.3C139.512 117.547 136.294 116.644 133.021 116.704C129.749 116.765 126.566 117.785 123.869 119.64C121.172 121.494 119.079 124.1 117.85 127.134L88.7168 200H33.3335V233.334H88.7168C102.434 233.334 114.584 225.1 119.65 212.384L134.134 176.184L184.75 290.1C187.45 296.15 193.434 300 200 300L200.8 299.984C204.158 299.824 207.388 298.651 210.066 296.619C212.744 294.587 214.743 291.791 215.8 288.6L264.367 142.9L280.684 208.084C282.473 215.302 286.63 221.712 292.492 226.29C298.353 230.867 305.58 233.347 313.017 233.334H366.667V200H313L282.834 79.2837V79.2837Z" fill="black"/>
</svg>
